<svg xmlns="http://www.w3.org/2000/svg" width="24" height="108" viewBox="0 0 800.7087 800.7087"
>

  <path d="M137.7,129.3L663,129.3A21.5,30.4 90,0 1,693.4 150.8L693.4,642.1A21.5,30.4 90,0 1,663 663.7L137.7,663.7A21.5,30.4 90,0 1,107.3 642.1L107.3,150.8A21.5,30.4 90,0 1,137.7 129.3z" fill="#EAEAEA" stroke="#EAEAEA" stroke-width="50" stroke-linecap="round" stroke-linejoin="round"/>
  <path d="m137.7,129.3c-16.8,0 -30.4,-1.3 -30.4,19.7l0,113L693.4,262l0,-111c0,-21 -13.6,-21.8 -30.4,-21.8z" fill="#797C76" stroke="#D7EEF4" stroke-linecap="round" stroke-linejoin="round"/>
  <path d="M308.5,161.9L308.5,161.9A10.8,17.8 90,0 1,326.3 172.7L326.3,220A10.8,17.8 90,0 1,308.5 230.7L308.5,230.7A10.8,17.8 90,0 1,290.7 220L290.7,172.7A10.8,17.8 90,0 1,308.5 161.9z" fill="#363B5F" stroke="#EAEAEA" stroke-width="11.25" stroke-linecap="round" stroke-linejoin="round"/>
  <path d="M400.4,161.9L400.4,161.9A10.8,17.8 90,0 1,418.1 172.7L418.1,220A10.8,17.8 90,0 1,400.4 230.7L400.4,230.7A10.8,17.8 90,0 1,382.6 220L382.6,172.7A10.8,17.8 90,0 1,400.4 161.9z" fill="#363B5F" stroke="#EAEAEA" stroke-width="11.25" stroke-linecap="round" stroke-linejoin="round"/>
  <path d="M492.2,161.9L492.2,161.9A10.8,17.8 90,0 1,510 172.7L510,220A10.8,17.8 90,0 1,492.2 230.7L492.2,230.7A10.8,17.8 90,0 1,474.4 220L474.4,172.7A10.8,17.8 90,0 1,492.2 161.9z" fill="#363B5F" stroke="#EAEAEA" stroke-width="11.25" stroke-linecap="round" stroke-linejoin="round"/>
</svg>