<svg xmlns="http://www.w3.org/2000/svg" width="24" height="108" viewBox="0 0 800.7087 800.7087"
>

  <path d="M324.8,559l140.7,0l0,26l-140.7,0z" fill="#C1C1C1" stroke-width="14.62969685"/>
  <path d="m245.7,301.1l0,284.1l73,0l0,-191.7l77.2,69 0.1,0.1 78.7,-69.1l0,191.7L547.8,585.2L547.8,301.1l-73,0l-78,69.8 -78,-69.8z" fill="#363B5F" stroke-width="0.96926469" stroke-linecap="butt" stroke-linejoin="miter" fill-rule="evenodd"/>
  <path d="m522.6,302.2l0,282l21.2,0L543.8,302.2Z" fill="#000000" fill-opacity="0.01960784" stroke-width="0.96749735" stroke-linecap="butt" stroke-linejoin="miter" fill-rule="evenodd"/>
  <path d="m293.5,302.2l0,282l21.2,0L314.7,302.2Z" fill="#000000" fill-opacity="0.01960784" stroke-width="0.96749735" stroke-linecap="butt" stroke-linejoin="miter" fill-rule="evenodd"/>
  <path d="m318.7,363l0,32l74.8,73c6.3,0 0,0 6.3,0l74.8,-73l0,-32l-78,76.1z" fill="#000000" fill-opacity="0.01960784" stroke-width="1.01229155" stroke-linecap="butt" stroke-linejoin="miter" fill-rule="evenodd"/>
  <path d="m348.9,572.6 l42.7,-83.2 186.2,-175c31.2,-24.4 67.2,24.5 41.3,52.2l-186.7,170.4z" fill="#CB9022" stroke="#5C410C" stroke-width="0.49996799" fill-rule="evenodd"/>
  <path d="m530.5,363c0,0 17.7,-3.3 29.2,10.9 11.7,14.6 9.8,34 9.8,34l51.8,-47.5c0,0 14.3,-15.9 -2.5,-38.5 -16.6,-22.3 -36.8,-6.3 -36.8,-6.3z" fill="#F20330" stroke-width="1.06330121" fill-rule="evenodd"/>
  <path d="m529.9,363.2c0,0 18.1,-3.4 29.7,11 12,14.8 10,34.4 10,34.4l20.9,-19.3c0,0 5.2,-19.7 -7.4,-35.5 -13,-16.2 -32.3,-9.9 -32.3,-9.9z" fill="#C1C1C1" stroke-width="1.07910931" fill-rule="evenodd"/>
  <path d="m356,566.1 l37.2,-73.2c20.5,5.6 34.3,20.5 35,42.1z" fill="#DDC888" stroke-width="1.0553019" fill-rule="evenodd"/>
  <path d="m367.3,543.4 l-12.4,23.7 24.4,-10.7c0,-9.1 -5.5,-12 -11.9,-13z" fill="#000000" stroke-width="0.96706837" fill-rule="evenodd"/>
  <path d="m396.1,492.9 l20.3,10 139.2,-131.8c-7.3,-8.7 -16.4,-9 -23.6,-8z" fill="#E1E1E1" fill-opacity="0.36364004" stroke-width="0.94961631" fill-rule="evenodd"/>
  <path d="m431.4,534.9 l-0.4,-9.2 138.5,-127.8c0,0 0.8,7.4 0.1,9.3z" fill="#000000" fill-opacity="0.36364004" stroke-width="0.9483121" fill-rule="evenodd"/>
  <path d="m589.3,304.9c-4.3,1 -8.6,3.1 -12.8,6.4l-0.1,0.1 -186.6,175.4 -47,91.6 7.8,-3.3 83.9,-35.8 187.1,-170.8 0.1,-0.1c14,-15 11.4,-36.2 0.9,-49.9 -5.2,-6.9 -12.4,-12 -20.6,-13.7 -4.1,-0.9 -8.4,-0.9 -12.7,0.2zM580.1,316.5l0,-0c7.2,-5.7 14.4,-6.9 21,-5.5 6.6,1.4 12.6,5.6 17,11.4 8.8,11.6 11.3,28.7 -0.7,41.5l-186.2,169.9 -75.2,32.1 38.5,-74.9z" fill="#5C410C" stroke-width="0.49996799" stroke-linecap="butt" stroke-linejoin="miter" fill-rule="evenodd"/>
</svg>